<?xml version="1.0" encoding="UTF-8" standalone="no"?>
<!-- Created with Inkscape (http://www.inkscape.org/) -->

<svg
   xmlns:dc="http://purl.org/dc/elements/1.1/"
   xmlns:cc="http://creativecommons.org/ns#"
   xmlns:rdf="http://www.w3.org/1999/02/22-rdf-syntax-ns#"
   xmlns:svg="http://www.w3.org/2000/svg"
   xmlns="http://www.w3.org/2000/svg"
   xmlns:sodipodi="http://sodipodi.sourceforge.net/DTD/sodipodi-0.dtd"
   xmlns:inkscape="http://www.inkscape.org/namespaces/inkscape"
   id="svg3089"
   version="1.1"
   inkscape:version="0.48.3.1 r9886"
   width="64"
   height="64"
   xml:space="preserve"
   sodipodi:docname="teamscale_logo.pdf"
   inkscape:export-filename="/home/mpdeimos/cqse/git/teamscale/design/logo/icon_24.png"
   inkscape:export-xdpi="33.75"
   inkscape:export-ydpi="33.75"><metadata
     id="metadata3095"><rdf:RDF><cc:Work
         rdf:about=""><dc:format>image/svg+xml</dc:format><dc:type
           rdf:resource="http://purl.org/dc/dcmitype/StillImage" /><dc:title></dc:title></cc:Work></rdf:RDF></metadata><defs
     id="defs3093"><clipPath
       clipPathUnits="userSpaceOnUse"
       id="clipPath3103"><path
         d="m 0,35.612 54.131,0 L 54.131,0 0,0 0,35.612 z"
         id="path3105"
         inkscape:connector-curvature="0" /></clipPath></defs><sodipodi:namedview
     pagecolor="#ffffff"
     bordercolor="#666666"
     borderopacity="1"
     objecttolerance="10"
     gridtolerance="10"
     guidetolerance="10"
     inkscape:pageopacity="0"
     inkscape:pageshadow="2"
     inkscape:window-width="1920"
     inkscape:window-height="1053"
     id="namedview3091"
     showgrid="false"
     fit-margin-top="0"
     fit-margin-left="0"
     fit-margin-right="0"
     fit-margin-bottom="0"
     inkscape:zoom="21.8125"
     inkscape:cx="32"
     inkscape:cy="21.680813"
     inkscape:window-x="0"
     inkscape:window-y="27"
     inkscape:window-maximized="1"
     inkscape:current-layer="g3097" /><g
     id="g3097"
     inkscape:groupmode="layer"
     inkscape:label="teamscale_logo"
     transform="matrix(1.25,0,0,-1.25,-1.11,64.576875)"><g
       id="g3099"
       transform="matrix(0.97520094,0,0,0.97520094,0.02202157,8.4114448)"><g
         id="g3101"
         clip-path="url(#clipPath3103)"><g
           id="g3107"
           transform="translate(48.96,34.5205)"><path
             d="m 0,0 -12.627,0 c -2.444,0 -4.432,-1.988 -4.432,-4.431 l 0,-11.057 -6.569,0 0,6.22 c 0,2.343 -1.905,4.248 -4.247,4.248 l -7.973,0 c -2.342,0 -4.248,-1.905 -4.248,-4.248 l 0,-6.22 -3.967,0 c -2.211,0 -4.009,-1.798 -4.009,-4.008 l 0,-5.959 c 0,-2.211 1.798,-4.01 4.009,-4.01 l 5.959,0 c 2.209,0 4.008,1.799 4.008,4.01 l 0,3.967 4.468,0 0,-8.114 c 0,-2.458 1.999,-4.457 4.456,-4.457 l 9.658,0 c 2.457,0 4.455,1.999 4.455,4.457 l 0,8.114 11.059,0 c 2.442,0 4.43,1.988 4.43,4.431 l 0,12.626 C 4.43,-1.988 2.442,0 0,0 m 0,-3 c 0.787,0 1.43,-0.644 1.43,-1.431 l 0,-12.626 c 0,-0.787 -0.643,-1.431 -1.43,-1.431 l -12.29,0 -0.314,0 -0.033,-0.033 c -0.699,-0.139 -1.249,-0.69 -1.387,-1.389 l -0.035,-0.033 0,-0.002 0,-9.657 c 0,-0.8 -0.654,-1.457 -1.455,-1.457 l -9.658,0 c -0.801,0 -1.456,0.657 -1.456,1.457 l 0,9.346 0,0.311 0,0.002 -0.034,0.033 c -0.139,0.699 -0.689,1.248 -1.387,1.387 l -0.034,0.035 -0.313,0 -6.932,0 -0.313,0 -0.034,-0.033 c -0.699,-0.139 -1.248,-0.69 -1.388,-1.389 l -0.033,-0.033 0,-0.313 0,-5.199 c 0,-0.555 -0.454,-1.01 -1.008,-1.01 l -5.959,0 c -0.555,0 -1.009,0.455 -1.009,1.01 l 0,5.959 c 0,0.553 0.454,1.008 1.009,1.008 l 5.199,0 0.312,0 0.034,0.033 c 0.699,0.139 1.248,0.689 1.388,1.388 l 0.034,0.034 0,0.312 0,7.453 c 0,0.686 0.561,1.248 1.248,1.248 l 7.973,0 c 0.686,0 1.247,-0.562 1.247,-1.248 l 0,-7.453 0,-0.312 0.034,-0.033 c 0.138,-0.7 0.689,-1.25 1.388,-1.389 l 0.034,-0.033 0,0 0.312,0 9.034,0 0.312,0 0.034,0.033 c 0.699,0.139 1.249,0.689 1.387,1.388 l 0.034,0.034 0,0.312 0,12.29 c 0,0.787 0.645,1.431 1.432,1.431 L 0,-3"
             style="fill:#fd7b34;fill-opacity:1;fill-rule:nonzero;stroke:none"
             id="path3109"
             inkscape:connector-curvature="0" /></g></g></g></g></svg>